<svg width="32" height="33" viewBox="0 0 32 33" fill="none" xmlns="http://www.w3.org/2000/svg">
<path fill-rule="evenodd" clip-rule="evenodd" d="M16 32.1923C24.8366 32.1923 32 25.0288 32 16.1923C32 7.3557 24.8366 0.192261 16 0.192261C7.16344 0.192261 0 7.3557 0 16.1923C0 25.0288 7.16344 32.1923 16 32.1923ZM13.4358 8.42362C14.8457 6.99313 17.1536 6.99313 18.5636 8.42362L25.0504 15.0048C25.8258 15.7915 25.8166 17.0578 25.0299 17.8332C24.2433 18.6086 22.977 18.5994 22.2016 17.8128L17.9996 13.5496V23.0343C17.9996 24.1389 17.1042 25.0343 15.9996 25.0343C14.895 25.0343 13.9996 24.1389 13.9996 23.0343L13.9996 13.5498L9.79773 17.8128C9.02235 18.5994 7.75605 18.6086 6.96938 17.8332C6.18271 17.0578 6.17356 15.7915 6.94895 15.0048L13.4358 8.42362Z" fill="#0E001C"/>
</svg>
