<svg width="22" height="20" viewBox="0 0 22 20" fill="none" xmlns="http://www.w3.org/2000/svg">
<path d="M6.41016 19.3789C6.11719 19.3789 5.88932 19.2812 5.72656 19.0859C5.57031 18.8971 5.49219 18.6432 5.49219 18.3242V15.8828H4.98438C4.10547 15.8828 3.36003 15.7233 2.74805 15.4043C2.14258 15.0853 1.68034 14.6198 1.36133 14.0078C1.04232 13.3958 0.882812 12.6504 0.882812 11.7715V4.57422C0.882812 3.69531 1.04232 2.94987 1.36133 2.33789C1.68034 1.72591 2.14258 1.26042 2.74805 0.941406C3.36003 0.615885 4.10547 0.453125 4.98438 0.453125H17.0059C17.8913 0.453125 18.6367 0.615885 19.2422 0.941406C19.8542 1.26693 20.3164 1.73568 20.6289 2.34766C20.9479 2.95312 21.1074 3.69531 21.1074 4.57422V11.7715C21.1074 12.6439 20.9479 13.3861 20.6289 13.998C20.3164 14.61 19.8542 15.0788 19.2422 15.4043C18.6367 15.7233 17.8913 15.8828 17.0059 15.8828H10.8242L7.61133 18.7246C7.36393 18.946 7.15234 19.1087 6.97656 19.2129C6.80729 19.3236 6.61849 19.3789 6.41016 19.3789ZM6.75195 17.8555L9.74023 14.9453C9.90299 14.776 10.0592 14.6654 10.209 14.6133C10.3587 14.5612 10.554 14.5352 10.7949 14.5352H16.9961C17.9206 14.5352 18.6107 14.2975 19.0664 13.8223C19.5286 13.347 19.7598 12.6634 19.7598 11.7715V4.57422C19.7598 3.67578 19.5286 2.99219 19.0664 2.52344C18.6107 2.04818 17.9206 1.81055 16.9961 1.81055H4.99414C4.06966 1.81055 3.37956 2.04818 2.92383 2.52344C2.4681 2.99219 2.24023 3.67578 2.24023 4.57422V11.7715C2.24023 12.6634 2.4681 13.347 2.92383 13.8223C3.37956 14.2975 4.06966 14.5352 4.99414 14.5352H6.10742C6.3418 14.5352 6.50781 14.584 6.60547 14.6816C6.70312 14.7793 6.75195 14.9421 6.75195 15.1699V17.8555ZM6.17578 5.57031C6.04557 5.57031 5.93164 5.52474 5.83398 5.43359C5.73633 5.33594 5.6875 5.21549 5.6875 5.07227C5.6875 4.94206 5.73633 4.82812 5.83398 4.73047C5.93164 4.63281 6.04557 4.58398 6.17578 4.58398H15.6289C15.7656 4.58398 15.8828 4.63281 15.9805 4.73047C16.0781 4.82812 16.127 4.94206 16.127 5.07227C16.127 5.21549 16.0781 5.33594 15.9805 5.43359C15.8828 5.52474 15.7656 5.57031 15.6289 5.57031H6.17578ZM6.17578 8.57812C6.04557 8.57812 5.93164 8.5293 5.83398 8.43164C5.73633 8.33398 5.6875 8.2168 5.6875 8.08008C5.6875 7.94336 5.73633 7.82617 5.83398 7.72852C5.93164 7.63086 6.04557 7.58203 6.17578 7.58203H15.6289C15.7656 7.58203 15.8828 7.63086 15.9805 7.72852C16.0781 7.82617 16.127 7.94336 16.127 8.08008C16.127 8.2168 16.0781 8.33398 15.9805 8.43164C15.8828 8.5293 15.7656 8.57812 15.6289 8.57812H6.17578ZM6.17578 11.5859C6.04557 11.5859 5.93164 11.5371 5.83398 11.4395C5.73633 11.3418 5.6875 11.2279 5.6875 11.0977C5.6875 10.9544 5.73633 10.834 5.83398 10.7363C5.93164 10.6387 6.04557 10.5898 6.17578 10.5898H12.3477C12.4779 10.5898 12.5918 10.6387 12.6895 10.7363C12.7871 10.834 12.8359 10.9544 12.8359 11.0977C12.8359 11.2279 12.7871 11.3418 12.6895 11.4395C12.5918 11.5371 12.4779 11.5859 12.3477 11.5859H6.17578Z" fill="black"/>
</svg>
