<svg width="21" height="21" viewBox="0 0 21 21" fill="none" xmlns="http://www.w3.org/2000/svg">
<path d="M10.5 20.0371C9.15885 20.0371 7.89909 19.7832 6.7207 19.2754C5.54883 18.7741 4.52018 18.0775 3.63477 17.1855C2.74935 16.3001 2.05273 15.2715 1.54492 14.0996C1.04362 12.9277 0.792969 11.6712 0.792969 10.3301C0.792969 9.21029 0.978516 8.14258 1.34961 7.12695C1.72721 6.11133 2.23828 5.19336 2.88281 4.37305C3.13672 4.02799 3.4362 3.83919 3.78125 3.80664C4.13281 3.76758 4.43229 3.86849 4.67969 4.10938C4.93359 4.35026 5.04753 4.61393 5.02148 4.90039C4.99544 5.18685 4.875 5.48958 4.66016 5.80859C4.17188 6.42708 3.79102 7.12695 3.51758 7.9082C3.24414 8.68294 3.10417 9.49023 3.09766 10.3301C3.09766 11.3522 3.28646 12.3125 3.66406 13.2109C4.04818 14.1029 4.57878 14.8874 5.25586 15.5645C5.93294 16.2415 6.71745 16.7721 7.60938 17.1562C8.50781 17.5404 9.47135 17.7324 10.5 17.7324C11.5352 17.7324 12.4987 17.5404 13.3906 17.1562C14.2826 16.7721 15.0671 16.2415 15.7441 15.5645C16.4212 14.8874 16.9486 14.1029 17.3262 13.2109C17.7103 12.3125 17.9023 11.3522 17.9023 10.3301C17.9023 9.2819 17.707 8.30208 17.3164 7.39062C16.9258 6.47917 16.3822 5.68164 15.6855 4.99805C14.9889 4.31445 14.1784 3.78385 13.2539 3.40625C12.3359 3.02865 11.3496 2.85286 10.2949 2.87891L11.3105 1.58984V4.85156C11.3105 5.125 11.2227 5.35612 11.0469 5.54492C10.8711 5.73372 10.6465 5.82812 10.373 5.82812C10.0931 5.82812 9.86198 5.73372 9.67969 5.54492C9.50391 5.35612 9.41602 5.125 9.41602 4.85156V1.6582C9.41602 1.33919 9.51367 1.08854 9.70898 0.90625C9.91081 0.717448 10.1777 0.623047 10.5098 0.623047C11.8509 0.623047 13.1074 0.873698 14.2793 1.375C15.4577 1.8763 16.4896 2.57292 17.375 3.46484C18.2669 4.35026 18.9603 5.38216 19.4551 6.56055C19.9564 7.73242 20.207 8.98893 20.207 10.3301C20.207 11.6712 19.9564 12.9277 19.4551 14.0996C18.9603 15.2715 18.2669 16.3001 17.375 17.1855C16.4831 18.0775 15.4512 18.7741 14.2793 19.2754C13.1074 19.7832 11.8477 20.0371 10.5 20.0371ZM12.0039 11.8535C11.724 12.1204 11.4212 12.2832 11.0957 12.3418C10.7702 12.3939 10.4544 12.3483 10.1484 12.2051C9.84896 12.0618 9.5918 11.834 9.37695 11.5215L6.37891 7.05859C6.23568 6.83724 6.19336 6.63542 6.25195 6.45312C6.31055 6.27083 6.43099 6.15039 6.61328 6.0918C6.79557 6.02669 6.9974 6.06576 7.21875 6.20898L11.6816 9.2168C12.0007 9.42513 12.2285 9.68555 12.3652 9.99805C12.502 10.304 12.541 10.6198 12.4824 10.9453C12.4303 11.2708 12.2708 11.5736 12.0039 11.8535Z" fill="black"/>
</svg>
