<svg width="16" height="22" viewBox="0 0 16 22" fill="none" xmlns="http://www.w3.org/2000/svg">
<path d="M0.260742 10.6875V8.79297C0.260742 8.50651 0.361654 8.26562 0.563477 8.07031C0.77181 7.86849 1.01921 7.76758 1.30566 7.76758C1.59863 7.76758 1.84928 7.86849 2.05762 8.07031C2.26595 8.26562 2.37012 8.50651 2.37012 8.79297V10.6191C2.37012 11.7259 2.60775 12.6927 3.08301 13.5195C3.56478 14.3464 4.22884 14.9876 5.0752 15.4434C5.92155 15.8926 6.89811 16.1172 8.00488 16.1172C9.10514 16.1172 10.0785 15.8926 10.9248 15.4434C11.7712 14.9876 12.432 14.3464 12.9072 13.5195C13.3825 12.6927 13.6201 11.7259 13.6201 10.6191V8.79297C13.6201 8.50651 13.7243 8.26562 13.9326 8.07031C14.141 7.86849 14.3916 7.76758 14.6846 7.76758C14.9775 7.76758 15.2249 7.86849 15.4268 8.07031C15.6351 8.26562 15.7393 8.50651 15.7393 8.79297V10.6875C15.7393 12.0742 15.4528 13.2982 14.8799 14.3594C14.307 15.4206 13.5127 16.2702 12.4971 16.9082C11.488 17.5462 10.3258 17.9303 9.01074 18.0605V19.8672H12.5654C12.8584 19.8672 13.109 19.9681 13.3174 20.1699C13.5322 20.3783 13.6396 20.6289 13.6396 20.9219C13.6396 21.2018 13.5322 21.4427 13.3174 21.6445C13.109 21.8529 12.8584 21.957 12.5654 21.957H3.43457C3.1416 21.957 2.8877 21.8529 2.67285 21.6445C2.46452 21.4427 2.36035 21.2018 2.36035 20.9219C2.36035 20.6289 2.46452 20.3783 2.67285 20.1699C2.8877 19.9681 3.1416 19.8672 3.43457 19.8672H6.98926V18.0605C5.66764 17.9303 4.50228 17.5462 3.49316 16.9082C2.48405 16.2702 1.69303 15.4206 1.12012 14.3594C0.547201 13.2982 0.260742 12.0742 0.260742 10.6875ZM4.12793 10.1992V4.16406C4.12793 3.35677 4.29395 2.64388 4.62598 2.02539C4.95801 1.4069 5.41374 0.921875 5.99316 0.570312C6.5791 0.21875 7.24967 0.0429688 8.00488 0.0429688C8.75358 0.0429688 9.41764 0.21875 9.99707 0.570312C10.583 0.921875 11.042 1.4069 11.374 2.02539C11.7061 2.64388 11.8721 3.35677 11.8721 4.16406V10.1992C11.8721 11.013 11.7061 11.7292 11.374 12.3477C11.042 12.9661 10.583 13.4512 9.99707 13.8027C9.41764 14.1478 8.75358 14.3203 8.00488 14.3203C7.24967 14.3203 6.5791 14.1478 5.99316 13.8027C5.41374 13.4512 4.95801 12.9661 4.62598 12.3477C4.29395 11.7292 4.12793 11.013 4.12793 10.1992ZM6.25684 10.2578C6.25684 10.8568 6.41309 11.3483 6.72559 11.7324C7.03809 12.1165 7.46452 12.3086 8.00488 12.3086C8.53874 12.3086 8.95866 12.1165 9.26465 11.7324C9.57715 11.3483 9.7334 10.8568 9.7334 10.2578V4.10547C9.7334 3.50651 9.57715 3.01497 9.26465 2.63086C8.95866 2.24674 8.53874 2.05469 8.00488 2.05469C7.46452 2.05469 7.03809 2.24674 6.72559 2.63086C6.41309 3.01497 6.25684 3.50651 6.25684 4.10547V10.2578Z" fill="white"/>
</svg>
