<svg width="32" height="32" viewBox="0 0 32 32" fill="none" xmlns="http://www.w3.org/2000/svg">
<path d="M10 15.7433V14.1872C10 13.9519 10.0782 13.754 10.2347 13.5936C10.3962 13.4278 10.588 13.3449 10.8101 13.3449C11.0372 13.3449 11.2315 13.4278 11.3931 13.5936C11.5546 13.754 11.6353 13.9519 11.6353 14.1872V15.6872C11.6353 16.5963 11.8196 17.3904 12.188 18.0695C12.5615 18.7487 13.0763 19.2754 13.7325 19.6497C14.3886 20.0187 15.1457 20.2032 16.0038 20.2032C16.8568 20.2032 17.6114 20.0187 18.2675 19.6497C18.9237 19.2754 19.436 18.7487 19.8044 18.0695C20.1729 17.3904 20.3571 16.5963 20.3571 15.6872V14.1872C20.3571 13.9519 20.4379 13.754 20.5994 13.5936C20.7609 13.4278 20.9552 13.3449 21.1823 13.3449C21.4095 13.3449 21.6013 13.4278 21.7577 13.5936C21.9192 13.754 22 13.9519 22 14.1872V15.7433C22 16.8824 21.7779 17.8877 21.3338 18.7594C20.8896 19.631 20.2738 20.3289 19.4864 20.8529C18.7041 21.377 17.8032 21.6925 16.7836 21.7995V23.2834H19.5394C19.7666 23.2834 19.9609 23.3663 20.1224 23.5321C20.289 23.7032 20.3722 23.9091 20.3722 24.1497C20.3722 24.3797 20.289 24.5775 20.1224 24.7433C19.9609 24.9144 19.7666 25 19.5394 25H12.4606C12.2334 25 12.0366 24.9144 11.87 24.7433C11.7085 24.5775 11.6278 24.3797 11.6278 24.1497C11.6278 23.9091 11.7085 23.7032 11.87 23.5321C12.0366 23.3663 12.2334 23.2834 12.4606 23.2834H15.2164V21.7995C14.1918 21.6925 13.2883 21.377 12.506 20.8529C11.7237 20.3289 11.1104 19.631 10.6662 18.7594C10.2221 17.8877 10 16.8824 10 15.7433ZM12.9981 15.3422V10.385C12.9981 9.72193 13.1268 9.13636 13.3842 8.62834C13.6416 8.12032 13.995 7.72193 14.4442 7.43316C14.8984 7.14439 15.4183 7 16.0038 7C16.5842 7 17.0991 7.14439 17.5483 7.43316C18.0025 7.72193 18.3584 8.12032 18.6158 8.62834C18.8732 9.13636 19.0019 9.72193 19.0019 10.385V15.3422C19.0019 16.0107 18.8732 16.5989 18.6158 17.107C18.3584 17.615 18.0025 18.0134 17.5483 18.3021C17.0991 18.5856 16.5842 18.7273 16.0038 18.7273C15.4183 18.7273 14.8984 18.5856 14.4442 18.3021C13.995 18.0134 13.6416 17.615 13.3842 17.107C13.1268 16.5989 12.9981 16.0107 12.9981 15.3422ZM14.6486 15.3904C14.6486 15.8824 14.7697 16.2861 15.012 16.6016C15.2543 16.9171 15.5849 17.0749 16.0038 17.0749C16.4177 17.0749 16.7432 16.9171 16.9804 16.6016C17.2227 16.2861 17.3438 15.8824 17.3438 15.3904V10.3369C17.3438 9.84492 17.2227 9.44118 16.9804 9.12567C16.7432 8.81016 16.4177 8.65241 16.0038 8.65241C15.5849 8.65241 15.2543 8.81016 15.012 9.12567C14.7697 9.44118 14.6486 9.84492 14.6486 10.3369V15.3904Z" fill="#B4BCAF"/>
</svg>
