<svg width="32" height="32" viewBox="0 0 32 32" fill="none" xmlns="http://www.w3.org/2000/svg">
<path d="M11.5273 25.9258C11.2344 25.9258 11.0065 25.8281 10.8438 25.6328C10.6875 25.444 10.6094 25.1901 10.6094 24.8711V22.4297H10.1016C9.22266 22.4297 8.47721 22.2702 7.86523 21.9512C7.25977 21.6322 6.79753 21.1667 6.47852 20.5547C6.15951 19.9427 6 19.1973 6 18.3184V11.1211C6 10.2422 6.15951 9.49674 6.47852 8.88477C6.79753 8.27279 7.25977 7.80729 7.86523 7.48828C8.47721 7.16276 9.22266 7 10.1016 7H22.123C23.0085 7 23.7539 7.16276 24.3594 7.48828C24.9714 7.8138 25.4336 8.28255 25.7461 8.89453C26.0651 9.5 26.2246 10.2422 26.2246 11.1211V18.3184C26.2246 19.1908 26.0651 19.9329 25.7461 20.5449C25.4336 21.1569 24.9714 21.6257 24.3594 21.9512C23.7539 22.2702 23.0085 22.4297 22.123 22.4297H15.9414L12.7285 25.2715C12.4811 25.4928 12.2695 25.6556 12.0938 25.7598C11.9245 25.8704 11.7357 25.9258 11.5273 25.9258ZM11.8691 24.4023L14.8574 21.4922C15.0202 21.3229 15.1764 21.2122 15.3262 21.1602C15.4759 21.1081 15.6712 21.082 15.9121 21.082H22.1133C23.0378 21.082 23.7279 20.8444 24.1836 20.3691C24.6458 19.8939 24.877 19.2103 24.877 18.3184V11.1211C24.877 10.2227 24.6458 9.53906 24.1836 9.07031C23.7279 8.59505 23.0378 8.35742 22.1133 8.35742H10.1113C9.18685 8.35742 8.49674 8.59505 8.04102 9.07031C7.58529 9.53906 7.35742 10.2227 7.35742 11.1211V18.3184C7.35742 19.2103 7.58529 19.8939 8.04102 20.3691C8.49674 20.8444 9.18685 21.082 10.1113 21.082H11.2246C11.459 21.082 11.625 21.1309 11.7227 21.2285C11.8203 21.3262 11.8691 21.4889 11.8691 21.7168V24.4023ZM11.293 12.1172C11.1628 12.1172 11.0488 12.0716 10.9512 11.9805C10.8535 11.8828 10.8047 11.7624 10.8047 11.6191C10.8047 11.4889 10.8535 11.375 10.9512 11.2773C11.0488 11.1797 11.1628 11.1309 11.293 11.1309H20.7461C20.8828 11.1309 21 11.1797 21.0977 11.2773C21.1953 11.375 21.2441 11.4889 21.2441 11.6191C21.2441 11.7624 21.1953 11.8828 21.0977 11.9805C21 12.0716 20.8828 12.1172 20.7461 12.1172H11.293ZM11.293 15.125C11.1628 15.125 11.0488 15.0762 10.9512 14.9785C10.8535 14.8809 10.8047 14.7637 10.8047 14.627C10.8047 14.4902 10.8535 14.373 10.9512 14.2754C11.0488 14.1777 11.1628 14.1289 11.293 14.1289H20.7461C20.8828 14.1289 21 14.1777 21.0977 14.2754C21.1953 14.373 21.2441 14.4902 21.2441 14.627C21.2441 14.7637 21.1953 14.8809 21.0977 14.9785C21 15.0762 20.8828 15.125 20.7461 15.125H11.293ZM11.293 18.1328C11.1628 18.1328 11.0488 18.084 10.9512 17.9863C10.8535 17.8887 10.8047 17.7747 10.8047 17.6445C10.8047 17.5013 10.8535 17.3809 10.9512 17.2832C11.0488 17.1855 11.1628 17.1367 11.293 17.1367H17.4648C17.5951 17.1367 17.709 17.1855 17.8066 17.2832C17.9043 17.3809 17.9531 17.5013 17.9531 17.6445C17.9531 17.7747 17.9043 17.8887 17.8066 17.9863C17.709 18.084 17.5951 18.1328 17.4648 18.1328H11.293Z" fill="#B4BCAF"/>
</svg>
