<svg width="298" height="119" viewBox="0 0 298 119" fill="none" xmlns="http://www.w3.org/2000/svg">
<path d="M297.127 32.4879L295.457 20.3324C295.15 18.0993 293.239 16.4321 290.984 16.4321H287.99L286.63 6.03412C286.335 3.78599 284.421 2.10667 282.155 2.10667H231.038C230.526 2.10667 230.023 2.19395 229.551 2.35948C229.084 2.19696 228.582 2.10667 228.061 2.10667H211.455C210.428 2.10667 209.438 2.45578 208.644 3.08778C207.849 2.45578 206.859 2.10667 205.833 2.10667H177.697C176.475 2.10667 175.304 2.60325 174.455 3.47902C173.604 4.3548 173.146 5.54055 173.185 6.76242L173.546 18.3852C173.58 19.4265 173.965 20.3745 174.582 21.1209C174.224 20.8741 173.832 20.6755 173.411 20.5401L173.345 16.399C173.306 13.9341 171.295 11.9569 168.831 11.9569H140.502L140.583 6.6932C140.601 5.48337 140.135 4.31868 139.286 3.45495C138.437 2.59422 137.279 2.10667 136.069 2.10667H119.462C118.18 2.10667 117.021 2.64237 116.197 3.5031C116.191 3.49708 116.188 3.49407 116.182 3.48805C115.33 2.60325 114.156 2.10667 112.931 2.10667H96.3248C95.1481 2.10667 94.0737 2.5581 93.2671 3.30146C93.0715 2.60325 92.7104 1.9562 92.2048 1.4205C91.3531 0.51463 90.1613 0 88.9184 0H72.3449C70.0696 0 68.1646 1.69136 67.8697 3.92142H62.7655C62.591 3.59338 62.3743 3.28641 62.1185 3.00652C61.2638 2.07056 60.0539 1.53787 58.7869 1.53787H7.7753C5.52116 1.53787 3.61312 3.20214 3.30313 5.43522L1.07006 21.6265C0.895508 22.8935 1.26568 24.1756 2.09029 25.1537L2.57483 25.7285L0.0408001 44.3575C-0.127734 45.6065 0.230401 46.8675 1.03094 47.8396L7.10418 55.2039C7.96189 56.2452 9.23794 56.8471 10.5862 56.8471H55.1935C57.5319 56.8471 59.4821 55.0624 59.6898 52.7331L60.0419 48.7785L64.2312 53.5486C65.0889 54.5237 66.3228 55.0835 67.6229 55.0835H87.3474C88.5331 55.0835 89.6707 54.617 90.5164 53.7864L90.6729 53.6329C90.6729 53.6329 90.7 53.663 90.7121 53.675C91.5638 54.5749 92.7495 55.0835 93.9894 55.0835H111.294C113.723 55.0835 115.715 53.1634 115.806 50.7377L115.869 49.0825L121.731 55.3935C122.586 56.3114 123.784 56.8351 125.039 56.8351H169.405C170.615 56.8351 171.774 56.3505 172.623 55.4868C173.471 54.6261 173.938 53.4584 173.92 52.2485L173.748 41.348C174.395 41.1223 174.991 40.7491 175.479 40.2495C175.795 39.9275 176.059 39.5603 176.264 39.1661L176.463 45.1882C176.502 46.3288 176.968 47.4122 177.772 48.2218L185.007 55.5018C185.855 56.3535 187.008 56.8351 188.209 56.8351H231.688C232.946 56.8351 234.149 56.3084 235.004 55.3845C235.094 55.2882 235.179 55.1888 235.257 55.0865H249.928C250.976 55.0865 251.981 54.7224 252.778 54.0723C253.558 54.7073 254.554 55.0865 255.628 55.0865H287.912C289.212 55.0865 290.449 54.5267 291.303 53.5486C292.161 52.5705 292.555 51.2734 292.387 49.9854L290.768 37.6252H292.658C293.961 37.6252 295.204 37.0594 296.062 36.0783C296.919 35.0942 297.308 33.788 297.13 32.497L297.127 32.4879ZM180.456 24.925C179.234 24.925 178.064 25.4215 177.212 26.3003C176.968 26.5531 176.761 26.833 176.583 27.131L176.538 24.7564C176.517 23.6911 176.129 22.722 175.497 21.9606C176.225 22.4662 177.11 22.7641 178.061 22.7641H193.211L193.319 24.928H180.456V24.925ZM234.721 33.4991L234.465 30.2669H235.103L235.389 33.4991H234.721Z" fill="#122F33"/>
<path d="M243.918 98.174C243.762 96.1396 242.275 94.5054 240.349 94.1021L238.965 75.3166C238.883 74.2302 238.414 73.2099 237.64 72.4425L228.85 63.7239C228.004 62.8842 226.86 62.4147 225.671 62.4147H210.452C210.16 60.1907 208.258 58.4903 205.977 58.4903H188.477C187.255 58.4903 186.084 58.9869 185.232 59.8657C184.381 60.7444 183.923 61.9302 183.965 63.1521L184.567 81.4681H182.361L181.949 63.459C181.892 61.0063 179.887 59.0471 177.435 59.0471H159.925C159.489 59.0471 159.058 59.1103 158.649 59.2306C158.243 59.1103 157.812 59.0471 157.37 59.0471H121.957C121.168 59.0471 120.425 59.2487 119.778 59.6068H106.723C106.518 58.9447 106.163 58.3308 105.672 57.8222C104.821 56.9314 103.641 56.4258 102.41 56.4258H84.9396C82.9202 56.4258 81.1958 57.756 80.627 59.6068H66.7289C64.3695 59.6068 62.4103 61.4216 62.2267 63.772L61.2757 76.084C61.1794 77.339 61.6097 78.5759 62.4644 79.4999C62.5968 79.6413 62.7353 79.7737 62.8827 79.8971H62.7955C60.442 79.8971 58.4828 81.7058 58.2962 84.0533L57.2098 97.7166C57.1105 98.9715 57.5378 100.211 58.3925 101.138C58.8771 101.662 59.4699 102.056 60.126 102.303L59.8431 106.008C59.7528 107.179 60.123 108.34 60.8754 109.24L67.6438 117.369C68.5016 118.398 69.7716 118.994 71.1138 118.994H118.005C120.446 118.994 122.444 117.053 122.517 114.612L122.565 113.002L126.51 117.468C127.368 118.437 128.599 118.994 129.893 118.994H179.213C180.429 118.994 181.594 118.503 182.443 117.634C182.623 117.45 182.783 117.248 182.927 117.038H240.496C241.754 117.038 242.955 116.514 243.807 115.59C244.662 114.669 245.092 113.432 244.996 112.177L243.921 98.168L243.918 98.174ZM211.572 85.0314L211.554 84.6823H212.761L212.782 85.0314H211.572Z" fill="#122F33"/>
<path d="M60.3006 41.029L67.6197 49.3624H87.3442L94.3504 42.4585L93.9833 49.3624H111.288L111.941 31.9011H115.556L115.42 35.8797H118.514L118.264 43.8309L125.03 51.1109H169.396L169.198 38.519H135.509L135.551 35.8797H172.249L172.021 23.6339H168.963L168.83 15.2674H135.918L136.069 5.42017H119.462L119.014 19.7456H112.393L112.928 5.42017H96.3217L96.2254 7.23492H88.6775L88.9152 3.31349H72.3417L72.0408 7.23492H61.2034L60.9386 10.2866H58.2962L58.7807 4.85136H7.77515L5.54208 21.0427L8.71714 24.8106H7.09199L4.51282 43.7646L10.5861 51.129H55.1934L56.2527 39.1962H55.7291L57.2338 22.3247H63.4756L61.7542 23.9318L60.3036 41.032L60.3006 41.029ZM119.327 20.6936L122.119 23.6339H119.233L119.324 20.6936H119.327ZM95.5994 19.1015L95.4158 22.5565L92.1866 19.1015H95.5994ZM78.3848 27.8442H79.5315L78.9236 36.8096H77.7679L78.3879 27.8442H78.3848ZM64.5771 19.1015H66.9245L64.3815 21.476L64.5771 19.1015Z" fill="#122F33"/>
<path d="M284.029 19.7425L282.154 5.41715H231.037L231.624 12.5558H228.63L228.064 5.41715H211.457L211.819 11.0931L205.839 5.41715H177.703L178.064 17.04H197.511L198.065 28.2324H180.459L180.974 43.8308L188.209 51.1109H231.688L229.581 24.5488H236.569L235.943 17.2476H238.597L240.325 36.8096H233.361L234.387 49.3624H249.928L255.026 43.4306L255.628 49.3624H287.912L285.624 31.9011H292.661L290.99 19.7455H284.035L284.029 19.7425ZM267.727 24.3742L261.253 18.4514H255.261L255.135 17.2446H266.908L267.73 24.3712L267.727 24.3742Z" fill="#122F33"/>
<path d="M177.435 62.3636H159.925L159.952 66.1225H157.385L157.367 62.3636H121.954L121.683 72.292H121.415L121.114 83.2136H113.175L116.347 80.2282L116.507 75.2353H119.98L120.335 62.9233H102.266L102.41 59.7423H84.9396L84.744 62.9233H66.7259L65.7719 75.2353H69.2449L68.8747 80.2282L71.7278 83.2136H62.7865L61.7 96.8769H64.9684L64.3334 105.153L71.1018 113.282H117.993L118.409 99.2243H100.619L100.725 96.8769H121.746L121.954 89.1304L123.88 91.2822H123.055L122.7 105.156L129.884 113.285H179.204L178.876 99.2274H178.277L177.435 62.3666V62.3636ZM160.184 99.2243H140.95L140.983 95.9259H160.16L160.184 99.2243Z" fill="#122F33"/>
<path d="M234.462 74.4468L225.671 65.7282H206.167L205.974 61.8038H188.474L189.229 84.7816H181.2L181.522 97.3163H179.343L179.677 111.326H240.484L239.41 97.3163H236.142L234.456 74.4468H234.462ZM200.322 97.3163H199.853L200.301 96.8017L200.322 97.3163ZM217.564 88.3419H207.271L206.814 78.9642H217.022L217.564 88.3419Z" fill="#122F33"/>
<path d="M10.1226 7.58401H41.0486L39.1195 25.7857H13.4632L8.45834 19.875L10.1226 7.58401ZM52.6263 48.1586H12.142L7.49228 42.5458L8.52154 34.8293H41.6625L41.795 33.5352H8.69609L9.48158 27.6456H53.9806L52.7737 40.7972H19.4492L19.2897 42.1094H53.18L52.6263 48.1586ZM20.03 19.249H28.3243L28.9623 13.7746H20.7102L20.027 19.249H20.03ZM44.4614 7.58401H55.8224L55.3198 13.0463H62.335L61.7843 19.5078H54.7239L54.1461 25.7857H42.5865L44.4554 7.58401H44.4614Z" fill="url(#paint0_linear_180_445)"/>
<path d="M63.7074 9.9796H74.5718L74.8637 6.03711H86.0381L85.7883 9.9796H96.6527L96.3187 16.3087H63.1717L63.7043 9.9796H63.7074ZM69.0222 46.404L63.2138 39.8191L64.4236 25.1085L71.183 18.7765H87.9732L93.8659 25.1085L93.0624 39.8191L86.3541 46.404H69.0222ZM74.7554 39.7138H81.5328L82.4929 25.0062H75.8087L74.7554 39.7138ZM98.9099 8.15583H110.108L109.531 22.5564H116.504L116.287 29.036H109.272L108.577 46.404H96.9687L98.9099 8.15583Z" fill="url(#paint1_linear_180_445)"/>
<path d="M118.52 26.4658H169.306L169.411 32.9935H118.315L118.52 26.4658ZM133.306 8.15583L133.128 18.0542H166.128L166.212 24.4795H126.841L121.791 19.1888L122.107 8.15583H133.306ZM132.782 34.5344L132.659 41.4323H166.438L166.525 48.1465H126.282L121.123 42.618L121.355 34.5344H132.782Z" fill="url(#paint2_linear_180_445)"/>
<path d="M200.879 28.9848L200.112 14.2562H180.715L180.51 8.15583H204.867L211.382 14.3585L212.3 28.9848H200.879ZM227.312 31.0915L228.618 48.1435H189.259L183.746 42.615L183.333 31.0915H227.309H227.312ZM195.257 41.4323H216.55L216.303 37.6794H195.083L195.257 41.4323ZM214.356 8.15583H225.554L226.105 15.3336H233.033L233.566 21.7258H226.598L227.194 29.5115H215.767L214.359 8.15583H214.356Z" fill="url(#paint3_linear_180_445)"/>
<path d="M233.987 8.15583H265.373L266.096 14.4608H252.101L252.79 21.2593H260.417L267.348 27.6185L269.496 46.404H258.15L256.209 27.7238H253.446L254.617 39.2834L248.469 46.404H236.966L236.4 39.7108H243.383L241.086 14.4608H234.52L233.987 8.15583ZM268.587 8.15583H279.786L281.634 22.5564H288.607L289.48 29.036H282.464L284.694 46.404H273.09L268.59 8.15583H268.587Z" fill="url(#paint4_linear_180_445)"/>
<path d="M85.4302 100.257L85.8154 93.6567H64.9082L65.4679 86.3736H119.101L118.887 93.6567H97.9258L97.6098 100.257H85.4302ZM69.3683 65.969H87.4345L87.6211 62.7699H99.4035L99.25 65.969H117.37L117.178 72.1385H113.714L113.482 78.8378L107.806 84.1616H77.0035L71.8933 78.8378L72.3718 72.1385H68.9078L69.3683 65.969ZM80.1153 95.3721L79.6639 102.475H115.348L115.107 109.968H72.5795L67.4181 103.796L68.0411 95.3721H80.1153ZM101.989 76.9959L102.205 72.1385H83.9314L83.6335 76.9959H101.989Z" fill="#9AD82C"/>
<path d="M163.022 86.0787H157.788L157.821 92.7087H129.333L123.949 86.7197L124.232 75.3858H142.614L142.641 72.3041H124.578L124.75 65.4032H154.511L154.547 82.4131H136.051L136.005 85.552H156.44L156.416 78.8889H162.956L162.932 76.2465H156.407L156.38 69.1832H162.862L162.826 65.4032H174.636L175.286 97.4517H163.136L163.028 86.0787H163.022ZM138.049 94.4843L137.95 102.475H175.987L176.144 109.968H131.193L125.716 103.796L125.929 94.4843H138.049Z" fill="#9AD82C"/>
<path d="M182.391 100.558H203.425L203.019 91.532H215.108L215.611 100.558H236.701L237.255 108.027H182.59L182.391 100.558ZM184.218 87.9506H192.269L191.447 64.8434H203.25L203.434 68.7889H224.681L231.654 75.7319L233.045 95.2548H220.916L219.743 75.8463H203.759L204.295 87.4811L197.475 95.2548H184.423L184.215 87.9506H184.218Z" fill="#9AD82C"/>
<defs>
<linearGradient id="paint0_linear_180_445" x1="34.9152" y1="2.11268" x2="34.9152" y2="131.285" gradientUnits="userSpaceOnUse">
<stop stop-color="#FEEBA0"/>
<stop offset="1" stop-color="#89D800"/>
</linearGradient>
<linearGradient id="paint1_linear_180_445" x1="89.8391" y1="2.18491" x2="89.8391" y2="130.963" gradientUnits="userSpaceOnUse">
<stop stop-color="#FEEBA0"/>
<stop offset="1" stop-color="#89D800"/>
</linearGradient>
<linearGradient id="paint2_linear_180_445" x1="143.86" y1="2.08861" x2="143.86" y2="131.33" gradientUnits="userSpaceOnUse">
<stop stop-color="#FEEBA0"/>
<stop offset="1" stop-color="#89D800"/>
</linearGradient>
<linearGradient id="paint3_linear_180_445" x1="207.036" y1="2.08861" x2="207.036" y2="131.33" gradientUnits="userSpaceOnUse">
<stop stop-color="#FEEBA0"/>
<stop offset="1" stop-color="#89D800"/>
</linearGradient>
<linearGradient id="paint4_linear_180_445" x1="261.735" y1="2.09764" x2="261.735" y2="131.131" gradientUnits="userSpaceOnUse">
<stop stop-color="#FEEBA0"/>
<stop offset="1" stop-color="#89D800"/>
</linearGradient>
</defs>
</svg>
